<svg viewBox="0 0 317 44" fill="none" xmlns="http://www.w3.org/2000/svg">
<path fill-rule="evenodd" clip-rule="evenodd" d="M53.1628 33.6269V9.26269H62.4234C67.5666 9.26269 70.2308 11.4437 70.2308 15.6049V15.7483C70.2308 18.3024 69.0483 20.1821 66.4126 20.957C69.4757 21.6026 71.1283 23.4106 71.1283 26.6821V26.8113C71.1283 31.2737 68.2932 33.6269 62.8651 33.6269H53.1628V33.6269ZM58.363 29.8102H62.0245C64.6602 29.8102 65.8427 28.5905 65.8427 26.3664V26.2373C65.8427 23.9845 64.6602 22.8223 61.7538 22.8223H58.363V29.8102ZM58.363 19.2781H61.5543C64.1188 19.2781 65.1446 18.3311 65.1446 16.1358V16.0066C65.1446 13.9547 64.0191 13.0364 61.5258 13.0364H58.363V19.2781ZM79.9187 34C76.5565 34 74.049 31.9625 74.049 27.2848V15.8057H78.7932V26.6104C78.7932 29.0353 79.7478 30.1832 81.7851 30.1832C83.7939 30.1832 85.3754 28.8918 85.3754 26.266V15.8057H90.1196V33.6269H85.3754V30.8289C84.5063 32.6369 82.7539 34 79.9187 34ZM100.363 34C95.7187 34 93.0118 31.8907 92.855 28.0309H97.3001C97.4996 29.638 98.2547 30.5563 100.335 30.5563C102.173 30.5563 103.042 29.8389 103.042 28.6192C103.042 27.3996 102.016 26.883 99.5511 26.5099C94.9779 25.7925 93.197 24.4294 93.197 20.957C93.197 17.2406 96.488 15.404 100.021 15.404C103.839 15.404 106.703 16.8389 107.131 20.9283H102.742C102.486 19.4647 101.688 18.7759 100.036 18.7759C98.4826 18.7759 97.5993 19.5221 97.5993 20.6126C97.5993 21.7318 98.4256 22.1766 100.933 22.5497C105.25 23.1954 107.615 24.3289 107.615 28.1457C107.615 31.9912 104.908 34 100.363 34ZM110.521 33.6269V15.8057H115.266V33.6269H110.521ZM112.858 13.3808C111.348 13.3808 110.151 12.2185 110.151 10.6832C110.151 9.1479 111.348 8 112.858 8C114.411 8 115.593 9.16225 115.593 10.6976C115.593 12.2329 114.411 13.3808 112.858 13.3808ZM119.397 33.6269V15.8057H124.17V18.6324C125.025 16.8675 126.905 15.3896 129.769 15.3896C133.16 15.3896 135.568 17.4989 135.568 22.277V33.6269H130.795V22.9945C130.795 20.5695 129.869 19.4216 127.76 19.4216C125.723 19.4216 124.17 20.713 124.17 23.3389V33.6269H119.397ZM147.336 34C142.135 34 138.346 30.628 138.346 24.9316V24.6589C138.346 19.0342 142.207 15.3896 147.207 15.3896C151.652 15.3896 155.613 18.0872 155.613 24.4581V25.8212H143.19C143.318 28.7914 144.871 30.4845 147.478 30.4845C149.686 30.4845 150.769 29.4945 151.068 28.0022H155.585C155.015 31.8477 152.051 34 147.336 34ZM143.261 22.7936H150.969C150.798 20.096 149.487 18.8046 147.207 18.8046C145.07 18.8046 143.617 20.2682 143.261 22.7936ZM164.916 34C160.272 34 157.565 31.8907 157.408 28.0309H161.853C162.053 29.638 162.808 30.5563 164.888 30.5563C166.74 30.5563 167.595 29.8389 167.595 28.6192C167.595 27.3996 166.569 26.883 164.104 26.5099C159.531 25.7925 157.75 24.4294 157.75 20.957C157.75 17.2406 161.041 15.404 164.575 15.404C168.393 15.404 171.256 16.8389 171.698 20.9283H167.31C167.054 19.4647 166.256 18.7759 164.603 18.7759C163.05 18.7759 162.167 19.5221 162.167 20.6126C162.167 21.7318 162.993 22.1766 165.501 22.5497C169.817 23.1954 172.182 24.3289 172.182 28.1457C172.154 31.9912 169.461 34 164.916 34ZM181.201 34C176.556 34 173.849 31.8907 173.693 28.0309H178.138C178.337 29.638 179.092 30.5563 181.172 30.5563C183.01 30.5563 183.879 29.8389 183.879 28.6192C183.879 27.3996 182.853 26.883 180.389 26.5099C175.815 25.7925 174.035 24.4294 174.035 20.957C174.035 17.2406 177.326 15.404 180.859 15.404C184.677 15.404 187.541 16.8389 187.968 20.9283H183.58C183.324 19.4647 182.526 18.7759 180.873 18.7759C179.32 18.7759 178.437 19.5221 178.437 20.6126C178.437 21.7318 179.263 22.1766 181.771 22.5497C186.088 23.1954 188.453 24.3289 188.453 28.1457C188.438 31.9912 185.746 34 181.201 34ZM198.411 33.6269V15.8057H203.155V33.6269H198.411ZM200.748 13.3808C199.238 13.3808 198.041 12.2185 198.041 10.6832C198.041 9.1479 199.238 8 200.748 8C202.301 8 203.483 9.16225 203.483 10.6976C203.483 12.2329 202.301 13.3808 200.748 13.3808ZM207.287 33.6269V15.8057H212.06V18.6324C212.915 16.8675 214.795 15.3896 217.659 15.3896C221.05 15.3896 223.457 17.4989 223.457 22.277V33.6269H218.685V22.9945C218.685 20.5695 217.759 19.4216 215.65 19.4216C213.613 19.4216 212.06 20.713 212.06 23.3389V33.6269H207.287ZM239.001 34C235.867 34 233.231 32.436 233.231 28.6909C233.231 24.5298 236.921 22.9658 242.192 22.9658H244.13V22.2483C244.13 20.1391 243.503 18.9768 241.323 18.9768C239.443 18.9768 238.588 19.9669 238.388 21.5022H233.872C234.171 17.2837 237.391 15.404 241.608 15.404C245.825 15.404 248.817 17.1832 248.817 22.0188V33.6413H244.173V31.489C243.218 32.9095 241.708 34 239.001 34ZM240.426 30.5563C242.534 30.5563 244.144 29.3653 244.144 27.3852V25.8786H242.306C239.542 25.8786 237.918 26.4956 237.918 28.404C237.918 29.7097 238.673 30.5563 240.426 30.5563ZM260.172 33.6269V9.26269H269.433C274.576 9.26269 277.24 11.4437 277.24 15.6049V15.7483C277.24 18.3024 276.057 20.1821 273.422 20.957C276.485 21.6026 278.138 23.4106 278.138 26.6821V26.8113C278.138 31.2737 275.302 33.6269 269.874 33.6269H260.172V33.6269ZM265.386 29.8102H269.048C271.684 29.8102 272.866 28.5905 272.866 26.3664V26.2373C272.866 23.9845 271.684 22.8223 268.777 22.8223H265.386V29.8102ZM265.386 19.2781H268.578C271.142 19.2781 272.168 18.3311 272.168 16.1358V16.0066C272.168 13.9547 271.043 13.0364 268.549 13.0364H265.386V19.2781V19.2781ZM289.236 30.255C291.9 30.255 293.453 28.2031 293.453 24.8311V24.5872C293.453 21.1865 291.9 19.1347 289.236 19.1347C286.6 19.1347 285.019 21.1148 285.019 24.5155V24.7881C285.019 28.2031 286.543 30.255 289.236 30.255ZM289.207 34C284.064 34 280.146 30.4558 280.146 24.9029V24.6302C280.146 19.0486 284.064 15.3896 289.236 15.3896C294.408 15.3896 298.297 18.9625 298.297 24.5298V24.8024C298.297 30.4271 294.379 34 289.207 34ZM298.383 33.6269L304.281 24.5298L298.781 15.8057H304.252L307.486 21.1578L310.649 15.8057H315.593L310.094 24.1567L316.163 33.6269H310.663L307.045 27.6291L303.326 33.6269H298.383Z" fill="white"/>
<path fill-rule="evenodd" clip-rule="evenodd" d="M18.0015 0.432053C18.9704 -0.129616 20.1499 -0.143658 21.1328 0.389928C25.7666 2.87531 39.0921 10.0787 39.0921 10.0787C39.0921 10.0787 39.0641 25.8616 39.0921 31.394C39.0921 32.5455 38.4884 33.6126 37.4773 34.1883C33.7984 36.3086 24.8258 41.462 21.1468 43.5682C20.1499 44.1439 18.9282 44.1439 17.9313 43.5682C14.2523 41.462 5.27969 36.2946 1.60076 34.1883C0.617836 33.5846 0 32.5314 0 31.394C0 27.1675 0 16.8468 0 12.6203C0 11.4829 0.617836 10.4157 1.6148 9.85405C5.30777 7.71971 14.3506 2.52427 18.0015 0.432053ZM18.0015 7.24229C18.9704 6.68062 20.1499 6.66658 21.1328 7.20016C24.6994 9.10984 33.0823 13.6032 33.0823 13.6032C33.0823 13.6032 33.1385 23.7132 33.1665 27.9679C33.1806 29.1193 32.5627 30.1865 31.5517 30.7622C28.9259 32.2646 23.7726 35.2274 21.1609 36.7299C20.1639 37.3056 18.9423 37.3056 17.9453 36.7299C15.3195 35.2274 10.1662 32.2646 7.5404 30.7481C6.54344 30.1724 5.92561 29.1193 5.92561 27.9819C5.92561 24.977 5.92561 19.0373 5.92561 16.0324C5.92561 14.895 6.54344 13.8279 7.5404 13.2662C10.1802 11.7356 15.3897 8.74475 18.0015 7.24229Z" fill="url(#paint0_linear)"/>
<path fill-rule="evenodd" clip-rule="evenodd" d="M39.0921 10.0649C39.0921 10.0649 39.0641 25.8478 39.0921 31.3802C39.1062 32.5316 38.4884 33.5988 37.4773 34.1745C33.7984 36.2948 24.8258 41.4481 21.1609 43.5544C20.1639 44.1301 18.9423 44.1301 17.9453 43.5544C14.2664 41.4481 5.29373 36.2808 1.6148 34.1745C0.617836 33.5848 0 32.5316 0 31.3942C0 27.1677 0 16.847 0 12.6205C0 11.4831 0.617836 10.4159 1.6148 9.85425L7.5404 13.2664C6.54344 13.8421 5.9256 14.8952 5.9256 16.0326C5.9256 19.0375 5.9256 24.9772 5.9256 27.9821C5.9256 29.1195 6.54344 30.1867 7.5404 30.7483C10.1662 32.2508 15.3195 35.2136 17.9453 36.7301C18.9423 37.3058 20.1639 37.3058 21.1609 36.7301C23.7726 35.2276 28.9259 32.2648 31.5517 30.7624C32.5487 30.1867 33.1665 29.1195 33.1665 27.9681C33.1385 23.6994 33.0823 13.6034 33.0823 13.6034L39.0921 10.0649Z" fill="white"/>
<defs>
<linearGradient id="paint0_linear" x1="5.83376" y1="20.4155" x2="32.6413" y2="22.8182" gradientUnits="userSpaceOnUse">
<stop stop-color="white"/>
<stop offset="1" stop-color="white" stop-opacity="0.01"/>
</linearGradient>
</defs>
</svg>
