<?xml version="1.0" encoding="UTF-8"?>
<svg width="24px" height="20px" viewBox="0 0 24 20" version="1.1" xmlns="http://www.w3.org/2000/svg" xmlns:xlink="http://www.w3.org/1999/xlink">
    <title>ui/components/ico-handler-top copy</title>
    <g id="DS/Basic-Layouts" stroke="none" stroke-width="1" fill="none" fill-rule="evenodd">
        <g id="DS/Boards/Components+Containers" transform="translate(-376.000000, -540.000000)">
            <rect fill="#FFFFFF" x="0" y="0" width="1440" height="2038"></rect>
            <rect id="Rectangle-Copy-6" fill="#F2F2F5" x="280" y="80" width="1040" height="824"></rect>
            <g id="form/input-copy-30" transform="translate(360.000000, 521.000000)">
                <rect id="container" fill="#D8D8D8" opacity="0" x="0" y="0" width="280" height="56"></rect>
                <g id="form/input/field">
                    <rect id="Rectangle-Copy-3" fill="#FFFFFF" x="0" y="0" width="280" height="56" rx="4"></rect>
                    <g id="ui/components/ico-handler-top-copy" fill="#C5C5D5">
                        <path d="M16,19.1894737 L25.5818572,19.1894737 C26.3154636,19.1894737 26.9901931,19.5911094 27.339938,20.235979 L28.2600143,21.932442 C28.6097592,22.5773117 29.2844887,22.9789474 30.018095,22.9789474 L38,22.9789474 C39.1045695,22.9789474 40,23.8743779 40,24.9789474 L40,36.1368421 C40,37.2414116 39.1045695,38.1368421 38,38.1368421 L18,38.1368421 C16.8954305,38.1368421 16,37.2414116 16,36.1368421 L16,19.1894737 L16,19.1894737 Z" id="Rectangle-Copy-21"></path>
                    </g>
                </g>
            </g>
        </g>
    </g>
</svg>