<svg width="18px" height="18px" viewBox="0 0 18 18" version="1.1" xmlns="http://www.w3.org/2000/svg" xmlns:xlink="http://www.w3.org/1999/xlink">
    <g id="Symbols" stroke="none" stroke-width="1" fill="none" fill-rule="evenodd">
        <g id="ui/components/ico/heart-copy-6" transform="translate(-13.000000, -13.000000)" fill="#C5C5D5">
            <path d="M14.1683553,26.6958193 L14.1677977,29.8325449 L17.3041807,29.8316447 L17.3041807,30.9076899 L14.1685048,30.9080544 L14.1683553,31 L13.0923101,31 L13.0922883,30.9080544 L13,30.9076899 L13,29.8316447 L13.0929954,29.8325449 L13.0923101,26.6958193 L14.1683553,26.6958193 Z M30.9076899,26.6958193 L30.9080544,29.8314952 L31,29.8316447 L31,30.9076899 L30.9080544,30.9077117 L30.9076899,31 L29.8316447,31 L29.8325449,30.9070046 L26.6958193,30.9076899 L26.6958193,29.8316447 L29.8325449,29.8322023 L29.8316447,26.6958193 L30.9076899,26.6958193 Z M27.7065914,15.5325298 L28.4674702,16.2934086 L22.761,22 L28.4674702,27.7065914 L27.7065914,28.4674702 L22,22.761 L16.2934086,28.4674702 L15.5325298,27.7065914 L21.239,22 L15.5325298,16.2934086 L16.2934086,15.5325298 L22,21.239 L27.7065914,15.5325298 Z M30.9076899,13 L30.9077117,13.0919456 L31,13.0923101 L31,14.1683553 L30.9070046,14.1674551 L30.9076899,17.3041807 L29.8316447,17.3041807 L29.8322023,14.1674551 L26.6958193,14.1683553 L26.6958193,13.0923101 L29.8314952,13.0919456 L29.8316447,13 L30.9076899,13 Z M14.1683553,13 L14.1674551,13.0929954 L17.3041807,13.0923101 L17.3041807,14.1683553 L14.1674551,14.1677977 L14.1683553,17.3041807 L13.0923101,17.3041807 L13.0919456,14.1685048 L13,14.1683553 L13,13.0923101 L13.0919456,13.0922883 L13.0923101,13 L14.1683553,13 Z" id="Combined-Shape"></path>
        </g>
    </g>
</svg>
