<?xml version="1.0" encoding="UTF-8"?>
<svg width="16px" height="15px" viewBox="0 0 16 15" version="1.1" xmlns="http://www.w3.org/2000/svg" xmlns:xlink="http://www.w3.org/1999/xlink">
    <title>Icon color</title>
    <g id="Symbols" stroke="none" stroke-width="1" fill="none" fill-rule="evenodd">
        <g id="ui/components/ico/heart" transform="translate(-12.000000, -13.000000)" fill="#C5C5D5">
            <path d="M28,17.3603604 C28,14.9521998 26.0300529,13 23.6,13 C22.2255213,13.0424428 20.9269077,13.6344234 20,14.6410811 C19.0730923,13.6344234 17.7744787,13.0424428 16.4,13 C13.9699471,13 12,14.9521998 12,17.3603604 C12,20.4681081 15.8,23.9009009 17.6,25.6846847 L19.424,27.4922523 C19.5364139,27.6037922 19.6889237,27.6666667 19.848,27.6666667 L20.152,27.6666667 C20.3110763,27.6666667 20.4635861,27.6037922 20.576,27.4922523 L22.4,25.6846847 C24.2,23.9009009 28,20.4681081 28,17.3603604 Z" id="Icon-color"></path>
        </g>
    </g>
</svg>