<?xml version="1.0" encoding="UTF-8"?>
<svg width="8px" height="13px" viewBox="0 0 8 13" version="1.1" xmlns="http://www.w3.org/2000/svg" xmlns:xlink="http://www.w3.org/1999/xlink">
    <title>?</title>
    <g id="Page-1" stroke="none" stroke-width="1" fill="#000000" fill-rule="evenodd">
        <g id="account/account-security" transform="translate(-1348.000000, -26.000000)" fill="#000000" fill-rule="nonzero">
            <g id="Group-11" transform="translate(1296.000000, 16.000000)">
                <g id="Rectangle-2" transform="translate(40.000000, 0.000000)">
                    <path d="M17.0390625,18.484375 L17.0390625,18.03125 C17.0390625,17.25 17.328125,16.84375 18.3515625,16.25 C19.4140625,15.6171875 20.0078125,14.78125 20.0078125,13.59375 L20.0078125,13.578125 C20.0078125,11.8671875 18.578125,10.6328125 16.4375,10.6328125 C14.1171875,10.6328125 12.84375,11.9765625 12.7890625,13.8046875 L12.7890625,13.8203125 L14.609375,13.8125 L14.625,13.8046875 C14.6796875,12.84375 15.328125,12.2265625 16.3359375,12.2265625 C17.3203125,12.2265625 17.9765625,12.828125 17.9765625,13.6484375 L17.9765625,13.6640625 C17.9765625,14.4296875 17.6484375,14.8515625 16.6796875,15.4375 C15.6015625,16.0703125 15.1484375,16.7734375 15.21875,17.9296875 L15.2265625,18.484375 L17.0390625,18.484375 Z M16.21875,22.1953125 C17.015625,22.1953125 17.515625,21.7109375 17.515625,20.96875 C17.515625,20.21875 17.015625,19.734375 16.21875,19.734375 C15.4375,19.734375 14.921875,20.21875 14.921875,20.96875 C14.921875,21.7109375 15.4375,22.1953125 16.21875,22.1953125 Z" id="?"></path>
                </g>
            </g>
        </g>
    </g>
</svg>