<svg xmlns="http://www.w3.org/2000/svg" xmlns:xlink="http://www.w3.org/1999/xlink" width="40" height="40" viewBox="0 0 40 40"><defs><style>.a,.d{fill:#b1b1b4;}.a{clip-rule:evenodd;}.b{fill:rgba(255,255,255,0);}.c{clip-path:url(#a);}.e{clip-path:url(#b);}</style><clipPath id="a"><path class="a" d="M14-6.615H12V.769A1.134,1.134,0,0,1,11,2,1.134,1.134,0,0,1,10,.769V-6.615H8L11-14Z" transform="translate(-8 12)"/></clipPath><clipPath id="b"><path class="a" d="M6-4.385,3,3,0-4.385H2v-7.385A1.134,1.134,0,0,1,3-13a1.134,1.134,0,0,1,1,1.231v7.385Z" transform="translate(0 10)"/></clipPath></defs><rect class="b" width="40" height="40"/><g transform="translate(14 14)"><g class="c" transform="translate(8)"><path class="d" d="M15-15V1H7V-15Z" transform="translate(-8 13)"/></g><g class="e" transform="translate(-2 1)"><path class="d" d="M7-14V3.88H-1V-14Z" transform="translate(0 10.12)"/></g></g></svg>