<svg xmlns="http://www.w3.org/2000/svg" xmlns:xlink="http://www.w3.org/1999/xlink" width="40" height="40" viewBox="0 0 40 40"><defs><style>.a,.e{fill:#b1b1b4;}.a,.b{clip-rule:evenodd;}.b{fill:none;}.c{fill:rgba(255,255,255,0);}.d{clip-path:url(#a);}.f{clip-path:url(#b);}.g{clip-path:url(#c);}.h{clip-path:url(#d);}.i{clip-path:url(#e);}.j{fill:rgba(255,255,255,0.5);}.k{clip-path:url(#f);}.l{clip-path:url(#g);}.m{clip-path:url(#h);}.n{clip-path:url(#i);}</style><clipPath id="a"><path class="a" d="M1-14H15a1,1,0,0,1,1,1,1,1,0,0,1-1,1H1a1,1,0,0,1-1-1A1,1,0,0,1,1-14Z" transform="translate(0 14)"/></clipPath><clipPath id="b"><path class="a" d="M1-9H15a1,1,0,0,1,1,1,1,1,0,0,1-1,1H1A1,1,0,0,1,0-8,1,1,0,0,1,1-9Z" transform="translate(0 9)"/></clipPath><clipPath id="c"><path class="a" d="M1-4H15a1,1,0,0,1,1,1,1,1,0,0,1-1,1H1A1,1,0,0,1,0-3,1,1,0,0,1,1-4Z" transform="translate(0 4)"/></clipPath><clipPath id="d"><path class="a" d="M5-11a2,2,0,0,0,2-2,2,2,0,0,0-2-2,2,2,0,0,0-2,2A2,2,0,0,0,5-11Z" transform="translate(-3 15)"/></clipPath><clipPath id="e"><path class="b" d="M5-11a2,2,0,0,0,2-2,2,2,0,0,0-2-2,2,2,0,0,0-2,2A2,2,0,0,0,5-11ZM1-17H9v8H1Z" transform="translate(-1 17)"/></clipPath><clipPath id="f"><path class="a" d="M12-6a2,2,0,0,0,2-2,2,2,0,0,0-2-2,2,2,0,0,0-2,2A2,2,0,0,0,12-6Z" transform="translate(-10 10)"/></clipPath><clipPath id="g"><path class="b" d="M12-6a2,2,0,0,0,2-2,2,2,0,0,0-2-2,2,2,0,0,0-2,2A2,2,0,0,0,12-6ZM8-12h8v8H8Z" transform="translate(-8 12)"/></clipPath><clipPath id="h"><path class="a" d="M5-1A2,2,0,0,0,7-3,2,2,0,0,0,5-5,2,2,0,0,0,3-3,2,2,0,0,0,5-1Z" transform="translate(-3 5)"/></clipPath><clipPath id="i"><path class="b" d="M5-1A2,2,0,0,0,7-3,2,2,0,0,0,5-5,2,2,0,0,0,3-3,2,2,0,0,0,5-1ZM1-7H9V1H1Z" transform="translate(-1 7)"/></clipPath></defs><rect class="c" width="40" height="40"/><g transform="translate(12 11)"><g class="d" transform="translate(0 3)"><path class="e" d="M-1-15H17v4H-1Z" transform="translate(0 14)"/></g><g class="f" transform="translate(0 8)"><path class="e" d="M-1-10H17v4H-1Z" transform="translate(0 9)"/></g><g class="g" transform="translate(0 13)"><path class="e" d="M-1-5H17v4H-1Z" transform="translate(0 4)"/></g><g class="h" transform="translate(3 2)"><path class="e" d="M2-16H8v6H2Z" transform="translate(-3 15)"/></g><g class="i" transform="translate(1)"><path class="j" d="M5-10a3,3,0,0,0,3-3,3,3,0,0,0-3-3,3,3,0,0,0-3,3A3,3,0,0,0,5-10Zm0-2a1,1,0,0,1-1-1,1,1,0,0,1,1-1,1,1,0,0,1,1,1A1,1,0,0,1,5-12Z" transform="translate(-1 17)"/></g><g class="k" transform="translate(9 7)"><path class="e" d="M9-11h6v6H9Z" transform="translate(-10 10)"/></g><g class="l" transform="translate(7 5)"><path class="j" d="M12-5a3,3,0,0,0,3-3,3,3,0,0,0-3-3A3,3,0,0,0,9-8,3,3,0,0,0,12-5Zm0-2a1,1,0,0,1-1-1,1,1,0,0,1,1-1,1,1,0,0,1,1,1A1,1,0,0,1,12-7Z" transform="translate(-8 12)"/></g><g class="m" transform="translate(3 12)"><path class="e" d="M2-6H8V0H2Z" transform="translate(-3 5)"/></g><g class="n" transform="translate(1 10)"><path class="j" d="M5,0A3,3,0,0,0,8-3,3,3,0,0,0,5-6,3,3,0,0,0,2-3,3,3,0,0,0,5,0ZM5-2A1,1,0,0,1,4-3,1,1,0,0,1,5-4,1,1,0,0,1,6-3,1,1,0,0,1,5-2Z" transform="translate(-1 7)"/></g></g></svg>