<svg xmlns="http://www.w3.org/2000/svg" xmlns:xlink="http://www.w3.org/1999/xlink" width="40" height="40" viewBox="0 0 40 40"><defs><style>.a{fill:none;clip-rule:evenodd;}.b{fill:rgba(255,255,255,0);}.c{opacity:0.5;}.d{clip-path:url(#a);}.e{fill:#1d1d20;}.f{clip-path:url(#b);}.g{fill:rgba(29,29,32,0.32);}.h{clip-path:url(#c);}.i{fill:rgba(29,29,32,0.64);}</style><clipPath id="a"><path class="a" d="M1-14H6a1,1,0,0,1,1,1v4A1,1,0,0,1,6-8H1A1,1,0,0,1,0-9v-4A1,1,0,0,1,1-14Z" transform="translate(0 14)"/></clipPath><clipPath id="b"><path class="a" d="M1-6H6A1,1,0,0,1,7-5v4A1,1,0,0,1,6,0H1A1,1,0,0,1,0-1V-5A1,1,0,0,1,1-6Z" transform="translate(0 6)"/></clipPath><clipPath id="c"><path class="a" d="M10-14h5a1,1,0,0,1,1,1v4a1,1,0,0,1-1,1H10A1,1,0,0,1,9-9v-4A1,1,0,0,1,10-14Z" transform="translate(-9 14)"/></clipPath></defs><rect class="b" width="40" height="40"/><g class="c" transform="translate(12 13)"><g class="d"><path class="e" d="M-1-15H8v8H-1Z" transform="translate(0 14)"/></g><g class="f" transform="translate(9)"><path class="g" d="M-1-7H8V1H-1Z" transform="translate(0 6)"/></g><g class="h" transform="translate(0 8)"><path class="i" d="M8-15h9v8H8Z" transform="translate(-9 14)"/></g></g></svg>