<svg xmlns="http://www.w3.org/2000/svg" xmlns:xlink="http://www.w3.org/1999/xlink" width="40" height="40" viewBox="0 0 40 40"><defs><style>.a{fill:#fff;stroke:#707070;}.b{fill:rgba(255,255,255,0);}.c{clip-path:url(#a);}.d{fill:none;}.e{fill:#86868a;}</style><clipPath id="a"><rect class="a" width="20" height="20" transform="translate(32 568)"/></clipPath></defs><rect class="b" width="40" height="40"/><g class="c" transform="translate(-22 -558)"><g transform="translate(32 568)"><rect class="d" width="20" height="20"/><rect class="e" width="8.333" height="1.667" rx="0.833" transform="translate(5.833 5.833)"/><rect class="e" width="8.333" height="1.667" rx="0.833" transform="translate(5.833 9.167)"/><rect class="e" width="5" height="1.667" rx="0.833" transform="translate(5.833 12.5)"/><path class="e" d="M15.833,2.917V17.083H4.167V2.917H15.833m.833-1.667H3.333a.833.833,0,0,0-.833.833V17.917a.833.833,0,0,0,.833.833H16.667a.833.833,0,0,0,.833-.833V2.083A.833.833,0,0,0,16.667,1.25Z"/></g></g></svg>