<svg xmlns="http://www.w3.org/2000/svg" xmlns:xlink="http://www.w3.org/1999/xlink" width="40" height="40" viewBox="0 0 40 40"><defs><style>.a{fill:#fff;stroke:#707070;}.b{fill:rgba(255,255,255,0);}.c{clip-path:url(#a);}.d{fill:none;}.e{fill:#86868a;}</style><clipPath id="a"><rect class="a" width="20" height="20" transform="translate(32 600)"/></clipPath></defs><rect class="b" width="40" height="40"/><g class="c" transform="translate(-22 -590)"><g transform="translate(32 600)"><rect class="d" width="20" height="20"/><path class="e" d="M8.042,4.167l2.042,2,.458.5H17.5v9.167H2.5V4.167H8.042M8.75,2.5H1.667a.833.833,0,0,0-.833.833V16.667a.833.833,0,0,0,.833.833H18.333a.833.833,0,0,0,.833-.833V5.833A.833.833,0,0,0,18.333,5H11.25Z"/></g></g></svg>