<?xml version="1.0" encoding="UTF-8"?>
<svg width="12px" height="15px" viewBox="0 0 12 15" version="1.1" xmlns="http://www.w3.org/2000/svg" xmlns:xlink="http://www.w3.org/1999/xlink">
    <title>bell</title>
    <g id="Page-1" stroke="none" stroke-width="1" fill="none" fill-rule="evenodd">
        <g id="bell" fill="#000000" fill-rule="nonzero">
            <path d="M4.5,13.5 L7.5,13.5 C7.5,14.3284271 6.8284271,15 6,15 C5.1715729,15 4.5,14.3284271 4.5,13.5 Z M11.16,9.66 C10.7379225,9.2384479 10.5005252,8.6665361 10.5,8.07 L10.5,6 C10.5,5.026334 10.1841996,4.0789328 9.6,3.3 L8.925,2.4 C8.5000776,1.83343685 7.8332039,1.5 7.125,1.5 L6.75,1.5 L6.75,0.375 C6.75,0.16789322 6.5821068,0 6.375,0 L5.625,0 C5.4178932,0 5.25,0.16789322 5.25,0.375 L5.25,1.5 L4.875,1.5 C4.1667961,1.5 3.4999224,1.83343685 3.075,2.4 L2.4,3.3 C1.8158004,4.0789328 1.5,5.026334 1.5,6 L1.5,8.07 C1.4994748,8.6665361 1.2620775,9.2384479 0.84,9.66 L0.2175,10.2825 C0.0789419,10.4221955 0.0008285,10.6107451 -1.77635684e-15,10.8075 L-1.77635684e-15,11.25 C-1.77635684e-15,11.6642136 0.3357864,12 0.75,12 L11.25,12 C11.6642136,12 12,11.6642136 12,11.25 L12,10.8075 C11.9991715,10.6107451 11.9210581,10.4221955 11.7825,10.2825 L11.16,9.66 Z" id="Shape"></path>
        </g>
    </g>
</svg>